<svg id="visual" viewBox="0 0 1920 1080" width="1920" height="1080" xmlns="http://www.w3.org/2000/svg" xmlns:xlink="http://www.w3.org/1999/xlink" version="1.1"><path d="M0 336L175 228L349 271L524 185L698 217L873 195L1047 401L1222 455L1396 303L1571 465L1745 357L1920 357L1920 0L1745 0L1571 0L1396 0L1222 0L1047 0L873 0L698 0L524 0L349 0L175 0L0 0Z" fill="#e5efec"></path><path d="M0 433L175 379L349 357L524 336L698 336L873 411L1047 584L1222 552L1396 487L1571 552L1745 530L1920 595L1920 355L1745 355L1571 463L1396 301L1222 453L1047 399L873 193L698 215L524 183L349 269L175 226L0 334Z" fill="#bcd4d4"></path><path d="M0 757L175 638L349 584L524 595L698 530L873 627L1047 789L1222 692L1396 638L1571 649L1745 800L1920 681L1920 593L1745 528L1571 550L1396 485L1222 550L1047 582L873 409L698 334L524 334L349 355L175 377L0 431Z" fill="#94b8c1"></path><path d="M0 822L175 811L349 649L524 692L698 703L873 703L1047 887L1222 843L1396 822L1571 800L1745 908L1920 757L1920 679L1745 798L1571 647L1396 636L1222 690L1047 787L873 625L698 528L524 593L349 582L175 636L0 755Z" fill="#739bb1"></path><path d="M0 1081L175 1081L349 1081L524 1081L698 1081L873 1081L1047 1081L1222 1081L1396 1081L1571 1081L1745 1081L1920 1081L1920 755L1745 906L1571 798L1396 820L1222 841L1047 885L873 701L698 701L524 690L349 647L175 809L0 820Z" fill="#5f7ca0"></path></svg>