<svg id="visual" viewBox="0 0 1920 1080" width="1920" height="1080" xmlns="http://www.w3.org/2000/svg" xmlns:xlink="http://www.w3.org/1999/xlink" version="1.1"><path d="M0 260L175 217L349 314L524 401L698 336L873 379L1047 163L1222 347L1396 357L1571 152L1745 357L1920 293L1920 0L1745 0L1571 0L1396 0L1222 0L1047 0L873 0L698 0L524 0L349 0L175 0L0 0Z" fill="#00cc8e"></path><path d="M0 563L175 606L349 584L524 660L698 638L873 541L1047 487L1222 681L1396 519L1571 584L1745 584L1920 627L1920 291L1745 355L1571 150L1396 355L1222 345L1047 161L873 377L698 334L524 399L349 312L175 215L0 258Z" fill="#00b98a"></path><path d="M0 746L175 746L349 779L524 757L698 757L873 779L1047 671L1222 843L1396 638L1571 660L1745 800L1920 854L1920 625L1745 582L1571 582L1396 517L1222 679L1047 485L873 539L698 636L524 658L349 582L175 604L0 561Z" fill="#00a784"></path><path d="M0 984L175 973L349 941L524 1016L698 995L873 1016L1047 897L1222 973L1396 897L1571 984L1745 1016L1920 1016L1920 852L1745 798L1571 658L1396 636L1222 841L1047 669L873 777L698 755L524 755L349 777L175 744L0 744Z" fill="#00957c"></path><path d="M0 1081L175 1081L349 1081L524 1081L698 1081L873 1081L1047 1081L1222 1081L1396 1081L1571 1081L1745 1081L1920 1081L1920 1014L1745 1014L1571 982L1396 895L1222 971L1047 895L873 1014L698 993L524 1014L349 939L175 971L0 982Z" fill="#038373"></path></svg>